<svg
  xmlns="http://www.w3.org/2000/svg"
  width="90"
  height="30"
  fill="none"
  viewBox="0 0 90 30"
>
  <style>
    @media (prefers-color-scheme: dark) {
      path {
        fill: indianred;
      }
    }
  </style>
  <path
    fill="#F6F6F6"
    d="M2.407 10.874h3.81v2.484c1.012-2.076 2.717-2.83 4.83-2.784 2.132.045 3.75.984 4.71 2.879.34-.426.649-.89 1.034-1.28.984-.994 2.22-1.468 3.614-1.582.922-.075 1.83.004 2.709.295 1.625.536 2.625 1.68 3.199 3.223.412 1.107.527 2.264.529 3.435.004 2.725.002 5.45.002 8.175 0 .068-.01.138-.016.233H23.07v-.404c0-2.53.015-5.058-.01-7.587-.006-.581-.075-1.181-.238-1.738-.336-1.14-1.125-1.87-2.346-2.006-1.384-.154-2.562.239-3.324 1.474-.372.603-.557 1.273-.564 1.975-.027 2.608-.038 5.216-.052 7.826v.467h-3.82v-.415c-.002-2.702.005-5.404-.014-8.107-.008-.872-.237-1.7-.846-2.366-.945-1.03-2.14-1.065-3.37-.68-1.411.441-2.03 1.521-2.194 2.894-.057.48-.059.969-.06 1.452-.006 2.263-.002 4.527-.002 6.79v.455H2.408l-.001-15.108zM41.772 12.664v-1.769h3.788v15.058h-3.769v-1.91c-.064.02-.104.02-.12.041-1.011 1.343-2.444 1.961-4.064 2.151-2.483.293-4.645-.434-6.385-2.222-1.254-1.288-1.89-2.862-2.071-4.624-.194-1.875.076-3.674 1.083-5.293 1.569-2.52 3.917-3.65 6.902-3.512 1.38.065 2.645.479 3.739 1.333.318.25.621.517.897.747zm-4.519 1.392c-2.442.002-4.292 1.86-4.296 4.313-.004 2.474 1.88 4.408 4.3 4.415 2.485.01 4.456-1.943 4.453-4.405-.006-2.404-1.986-4.325-4.457-4.323zM74.462 12.673v-1.78h3.787v15.061h-3.774V24c-.299.308-.531.593-.806.827-1.25 1.06-2.748 1.484-4.363 1.474-2.127-.014-3.966-.773-5.427-2.314-1.261-1.33-1.897-2.936-2.055-4.738-.167-1.903.142-3.716 1.208-5.331 1.578-2.392 3.877-3.463 6.758-3.334 1.392.063 2.669.474 3.772 1.338.318.25.618.516.9.752zm-4.529 1.383c-2.44.004-4.29 1.863-4.292 4.316-.002 2.472 1.884 4.407 4.303 4.412 2.486.006 4.456-1.947 4.45-4.408-.006-2.404-1.987-4.323-4.46-4.32zM59.803 15.256h-3.586c-.388-1.554-2.02-2.203-3.375-1.352-.993.625-.97 1.872.094 2.352.663.3 1.398.447 2.107.644 1.092.303 2.21.527 3.198 1.118 2.151 1.286 2.752 3.985 1.297 5.979-.78 1.067-1.902 1.659-3.169 1.992-2.065.544-4.074.431-5.957-.638-1.523-.867-2.396-2.169-2.532-3.915-.004-.044.005-.09.009-.152h3.552c.122 1.036.751 1.645 1.762 1.886.824.195 1.635.124 2.4-.248.654-.317.94-.837.877-1.477-.052-.512-.37-.834-.816-.995-.636-.229-1.294-.398-1.95-.57-1.051-.278-2.106-.532-3.081-1.042-2.384-1.246-2.775-3.814-1.922-5.494.602-1.188 1.609-1.952 2.863-2.367 2.18-.72 4.31-.59 6.293.614 1.305.794 1.912 2.019 1.962 3.515.004.046-.012.09-.026.15zM85.412 10.905v15.051h-3.783v-15.05h3.783z"
  />
  <path fill="#D71920" d="M85.412 10.905H81.63v10.158l3.78-4.577v-5.58z" />
  <path
    fill="#F6F6F6"
    d="M83.504 7.507c1.178 0 2.133-.938 2.133-2.095 0-1.157-.955-2.096-2.133-2.096s-2.133.939-2.133 2.096.955 2.095 2.133 2.095z"
  />
</svg>
